<?xml version="1.0" encoding="UTF-8"?>
<svg id="svg4" width="16px" height="16px" version="1.1" viewBox="0 0 16 16" xmlns="http://www.w3.org/2000/svg">
 <g id="g2" transform="matrix(1 0 0 1.0001 0 -6.7004e-5)" enable-background="new" fill="#222">
  <path id="path2" d="m3.0391 1c-1.668 0-3.0391 1.3711-3.0391 3.0391v7.9209c0 1.668 1.3711 3.0391 3.0391 3.0391h9.9219c1.668 0 3.0391-1.3711 3.0391-3.0391v-7.9209c0-1.668-1.3711-3.0391-3.0391-3.0391zm0 2h9.9219c0.59375 0 1.0391 0.44531 1.0391 1.0391v7.9209c0 0.59375-0.44531 1.0391-1.0391 1.0391h-9.9219c-0.59375 0-1.0391-0.44531-1.0391-1.0391v-7.9209c0-0.59375 0.44531-1.0391 1.0391-1.0391z"/>
  <path id="path1" d="m6 5v5.7734h0.50264c0.088302 0 0.17321-0.02344 0.25132-0.07422l3.5117-2.3086c0.15283-0.097656 0.23434-0.30078 0.23434-0.50391s-0.081509-0.40625-0.23434-0.50391l-3.5117-2.3086c-0.078114-0.050781-0.16302-0.074219-0.25132-0.074219z" enable-background="new" stroke-width=".93243"/>
 </g>
</svg>
