<?xml version="1.0" encoding="UTF-8"?>
<!-- Created with Inkscape (http://www.inkscape.org/) / Modified for CineHDR -->
<svg id="svg1" width="128" height="128" version="1.1" viewBox="0 0 33.867 33.867" xmlns="http://www.w3.org/2000/svg" xmlns:xlink="http://www.w3.org/1999/xlink">
 <defs id="defs1">
  <linearGradient id="linearGradient1" x1="88.596" x2="536.6" y1="-449.39" y2="-449.39" gradientTransform="matrix(.061421 0 0 .087034 -2.2666 69.804)" gradientUnits="userSpaceOnUse">
   <stop stop-color="#00798c" offset="0"/>
   <stop stop-color="#00cff2" offset=".074"/>
   <stop stop-color="#008093" offset=".138"/>
   <stop stop-color="#04838f" offset=".355"/>
   <stop stop-color="#0d8e80" offset=".73"/>
   <stop stop-color="#118f7b" offset=".8817"/>
   <stop stop-color="#16d8c6" offset=".9451"/>
   <stop stop-color="#0d7b76" offset="1"/>
  </linearGradient>
  <linearGradient id="linearGradient2" x1="-186.6" x2="-101.4" y1="263.83" y2="204.17" gradientTransform="matrix(.26458 0 0 .26458 55.033 -45.508)" gradientUnits="userSpaceOnUse">
   <stop stop-color="#00afcb" offset="0"/>
   <stop stop-color="#18d4b5" offset=".56228"/>
   <stop stop-color="#00afef" offset="1"/>
  </linearGradient>
  <linearGradient id="linearGradient298" x1="66" x2="66" y1="260" y2="228" gradientTransform="matrix(.28113 0 0 .26458 -1.3563 -45.508)" gradientUnits="userSpaceOnUse">
   <stop stop-color="#d6d6d6" offset="0"/>
   <stop stop-color="#fff" offset="1"/>
  </linearGradient>
  <linearGradient id="goldBadgeGrad" x1="0" y1="0" x2="1" y2="1">
   <stop stop-color="#FFD700" offset="0"/>
   <stop stop-color="#FFB300" offset="1"/>
  </linearGradient>
 </defs>
 <g id="layer1">
  <!-- Base Background -->
  <rect id="rect1048-7-2" x="3.175" y="4.2333" width="27.517" height="26.458" rx="2.1167" ry="2.1167" fill="url(#linearGradient1)"/>
  <rect id="rect929-36-9-1-0" x="3.175" y="3.175" width="27.517" height="26.458" rx="2.1167" ry="2.1167" fill="url(#linearGradient2)"/>
  
  <!-- Cinema Screen -->
  <rect id="rect7-7-6" x="5.2917" y="10.583" width="23.283" height="16.933" ry="1.3303" fill="#1a1622" fill-opacity=".9013" stroke-width=".56256"/>

  <!-- Film Reel Sprocket Holes -->
  <g id="g1" fill="#131019" fill-opacity=".90459" stroke-width=".89148">
   <rect x="5.2917" y="5.2917" width="3.4396" height="3.175" ry="1.4479"/>
   <rect x="25.135" y="5.2917" width="3.4396" height="3.175" ry="1.4479"/>
   <rect x="15.214" y="5.2917" width="3.4396" height="3.175" ry="1.4479"/>
   <rect x="20.174" y="5.2917" width="3.4396" height="3.175" ry="1.4479"/>
   <rect x="10.253" y="5.2917" width="3.4396" height="3.175" ry="1.4479"/>
  </g>

  <!-- Play Button Triangle -->
  <path id="path1-8-2" d="m12.7 22.999v-7.904c0-1.0778 1.0595-1.0722 1.0595-1.0722h0.11107c0.20276 0 0.40552 0.03931 0.58527 0.12631l6.6907 4.0222c0.36301 0.17121 0.54934 0.52488 0.54934 0.87853 0 0.35367-0.18644 0.70732-0.54934 0.88134l-6.6907 4.0222c-0.17986 0.08702-0.38262 0.12631-0.58527 0.12351h-0.11107s-1.0595 0-1.0595-1.0778z" fill="url(#linearGradient298)" stroke-width=".77557"/>

  <!-- Strict Modern Yellow HDR Text using Noto Sans ExtraBold -->
  <path d="M 22.15625 25.78125 L 21.59375 25.78125 L 21.59375 24.796875 L 20.75 24.796875 L 20.75 25.78125 L 20.1875 25.78125 L 20.1875 23.421875 L 20.75 23.421875 L 20.75 24.328125 L 21.59375 24.328125 L 21.59375 23.421875 L 22.15625 23.421875 Z M 24.621094 24.5625 C 24.621094 24.835938 24.566406 25.0625 24.464844 25.25 C 24.371094 25.429688 24.230469 25.5625 24.042969 25.65625 C 23.863281 25.742188 23.644531 25.78125 23.386719 25.78125 L 22.652344 25.78125 L 22.652344 23.421875 L 23.449219 23.421875 C 23.824219 23.421875 24.109375 23.523438 24.308594 23.71875 C 24.515625 23.917969 24.621094 24.199219 24.621094 24.5625 Z M 24.042969 24.578125 C 24.042969 24.351562 23.988281 24.179688 23.886719 24.0625 C 23.792969 23.949219 23.644531 23.890625 23.449219 23.890625 L 23.214844 23.890625 L 23.214844 25.3125 L 23.402344 25.3125 C 23.621094 25.3125 23.78125 25.257812 23.886719 25.140625 C 23.988281 25.015625 24.042969 24.828125 24.042969 24.578125 Z M 25.878906 23.421875 C 26.503906 23.421875 26.816406 23.652344 26.816406 24.109375 C 26.816406 24.265625 26.773438 24.398438 26.691406 24.5 C 26.617188 24.605469 26.519531 24.6875 26.394531 24.75 L 27.082031 25.78125 L 26.441406 25.78125 L 25.925781 24.90625 L 25.691406 24.90625 L 25.691406 25.78125 L 25.128906 25.78125 L 25.128906 23.421875 Z M 25.863281 23.859375 L 25.691406 23.859375 L 25.691406 24.46875 L 25.863281 24.46875 C 25.976562 24.46875 26.066406 24.449219 26.128906 24.40625 C 26.199219 24.355469 26.238281 24.265625 26.238281 24.140625 C 26.238281 24.046875 26.207031 23.980469 26.144531 23.9375 C 26.089844 23.886719 25.996094 23.859375 25.863281 23.859375 Z " fill="url(#goldBadgeGrad)" stroke="#1a1622" stroke-width="0.15" stroke-linejoin="round"/>
 </g>
</svg>
