<?xml version="1.0" encoding="UTF-8"?>
<svg width="16" height="16" gpa:keywords="media-view-subtitles sub srt video screen" gpa:state="1" gpa:version="1" version="1.1" xmlns="http://www.w3.org/2000/svg" xmlns:gpa="https://www.gtk.org/grappa">
 <path d="m2.918 2c-1.0624 0-1.918 0.85562-1.918 1.918v5.5195c-1.28e-4 0.18362 0 0.34811 0 0.48633v1c0 0.01153-8.4e-5 0.02366 0 0.03516v1.123c0 1.0623 0.85562 1.918 1.918 1.918h10.164c1.0621 0 1.9175-0.85408 1.918-1.916v-8.1679c-4.77e-4 -1.062-0.85591-1.9161-1.918-1.9161zm0.082031 7h4v1h-4v-0.5zm5 0h3v1h-3v-0.5zm4 0h1v1h-1v-0.5zm-9 2h2v1h-2v-0.5zm3 0h3v1h-3v-0.5zm4 0h3v1h-3v-0.5z" class="foreground-fill" gpa:fill="foreground" gpa:states="filled"/>
 <path class="foreground-stroke transparent-fill" d="m3 2h10c1.108 0 2 0.892 2 2v8c0 1.108-0.892 2-2 2h-10c-1.108 0-2-0.892-2-2v-8c0-1.108 0.892-2 2-2z" fill="none" stroke="#000" stroke-linecap="round" stroke-linejoin="round" stroke-width="2" gpa:states="outline" gpa:stroke="foreground" gpa:stroke-maxwidth="150%" gpa:stroke-minwidth="25%"/>
</svg>
