<?xml version="1.0" encoding="UTF-8"?>
<svg id="svg1" width="16" height="16" gpa:keywords="media-skip-backward start" gpa:state="1" gpa:version="1" version="1.1" xmlns="http://www.w3.org/2000/svg" xmlns:gpa="https://www.gtk.org/grappa">
 <style id="style1" type="text/css">.not-initial-state {
      display: none;
    }</style>
 <path id="rect2-2" d="m13.41 2c0.30315 3.064e-4 0.60053 0.083918 0.83594 0.23828 0.47082 0.30873 0.75357 0.85263 0.75391 1.4395v8.6445c-3.38e-4 0.58682-0.28309 1.1307-0.75391 1.4395-0.23541 0.15436-0.53279 0.23798-0.83594 0.23828-0.278 2.81e-4 -0.56127-0.06948-0.80469-0.21875l-7.7734-4.3125a0.94234 0.94234 0 0 1-0.08008-0.05078c-0.50167-0.34891-0.75255-0.88355-0.75195-1.418-5.97e-4 -0.53442 0.25028-1.0691 0.75195-1.418a0.94234 0.94234 0 0 1 0.08008-0.050781l7.7734-4.3125c0.24342-0.14927 0.52668-0.21903 0.80468-0.21875zm-11.41 0c0.554 0 1 0.446 1 1v10c0 0.554-0.446 1-1 1s-1-0.446-1-1v-10c0-0.554 0.446-1 1-1z" style="paint-order:stroke markers fill"/>
</svg>
