<?xml version="1.0" encoding="UTF-8" standalone="no"?>
<svg
   width="16"
   height="16"
   gpa:state="0"
   gpa:state-names="outline empty"
   gpa:version="1"
   version="1.1"
   id="svg1"
   sodipodi:docname="cine-playlist-symbolic-rtl.svg"
   inkscape:version="1.4.4 (dcaf3e7d9e, 2026-05-05)"
   xmlns:inkscape="http://www.inkscape.org/namespaces/inkscape"
   xmlns:sodipodi="http://sodipodi.sourceforge.net/DTD/sodipodi-0.dtd"
   xmlns="http://www.w3.org/2000/svg"
   xmlns:svg="http://www.w3.org/2000/svg"
   xmlns:rdf="http://www.w3.org/1999/02/22-rdf-syntax-ns#"
   xmlns:cc="http://creativecommons.org/ns#"
   xmlns:dc="http://purl.org/dc/elements/1.1/"
   xmlns:gpa="https://www.gtk.org/grappa">
  <defs
     id="defs1" />
  <sodipodi:namedview
     id="namedview1"
     pagecolor="#ffffff"
     bordercolor="#000000"
     borderopacity="0.25"
     inkscape:showpageshadow="2"
     inkscape:pageopacity="0.0"
     inkscape:pagecheckerboard="0"
     inkscape:deskcolor="#d1d1d1"
     inkscape:zoom="50.0625"
     inkscape:cx="7.9900125"
     inkscape:cy="8"
     inkscape:window-width="1920"
     inkscape:window-height="1011"
     inkscape:window-x="0"
     inkscape:window-y="0"
     inkscape:window-maximized="1"
     inkscape:current-layer="svg1" />
  <metadata
     id="metadata1">
    <rdf:RDF>
      <cc:Work>
        <cc:license
           rdf:resource="https://creativecommons.org/publicdomain/zero/1.0/" />
        <dc:subject>
          <rdf:Bag>
            <rdf:li>view-list bullet</rdf:li>
          </rdf:Bag>
        </dc:subject>
        <dc:creator>
          <cc:Agent>
            <dc:title>Jakub Steiner</dc:title>
          </cc:Agent>
        </dc:creator>
      </cc:Work>
    </rdf:RDF>
  </metadata>
  <path
     d="m 12.80859,13 c 0,0.32898 0.26668,0.59568 0.59567,0.5957 0.32898,2e-5 0.5957,-0.26665 0.59574,-0.59563 4e-5,-0.32898 -0.26661,-0.59572 -0.59559,-0.59578 -0.32898,-6.1e-5 -0.59573,0.26657 -0.59581,0.59556 l 0.5957,1.47e-4 z m 0,-5 c 0,0.32898 0.26668,0.59568 0.59567,0.5957 0.32899,2e-5 0.5957,-0.26665 0.59574,-0.59563 4e-5,-0.32898 -0.26661,-0.59572 -0.59559,-0.59578 -0.32898,-6e-5 -0.59573,0.26657 -0.59581,0.59556 l 0.5957,1.464e-4 z m 0,-5 c 0,0.32898 0.26668,0.59568 0.59567,0.5957 0.32899,2e-5 0.5957,-0.26665 0.59574,-0.59563 4e-5,-0.32898 -0.26661,-0.59572 -0.59559,-0.59578 -0.32898,-6e-5 -0.59573,0.26657 -0.59581,0.59556 l 0.5957,1.464e-4 z m -3.4043,10 h -7 m 7,-5 h -7 m 7,-5 h -7"
     stroke-width="2"
     stroke-linecap="round"
     stroke-linejoin="round"
     stroke="#000000"
     fill="none"
     class="foreground-stroke transparent-fill"
     gpa:states="outline"
     gpa:stroke="foreground"
     gpa:stroke-minwidth="25%"
     gpa:stroke-maxwidth="150%"
     id="path1" />
</svg>
