<?xml version="1.0" encoding="UTF-8"?>
<svg width="16" height="16" gpa:state="0" gpa:state-names="outline state1 empty" gpa:version="1" version="1.1" xmlns="http://www.w3.org/2000/svg" xmlns:cc="http://creativecommons.org/ns#" xmlns:dc="http://purl.org/dc/elements/1.1/" xmlns:gpa="https://www.gtk.org/grappa" xmlns:rdf="http://www.w3.org/1999/02/22-rdf-syntax-ns#">
 <path class="foreground-fill" d="m1 4v8h14v-8zm5.6859 1.0611c0.11769 0.0015 0.23536 0.03497 0.33984 0.09766l3.5995 2.2259c0.21591 0.12954 0.34961 0.36344 0.34961 0.61523s-0.13663 0.48093-0.34961 0.61523l-3.5998 2.27c-0.20897 0.12538-0.46958 0.12983-0.68164 0.009765-0.21206-0.12007-0.34377-0.34615-0.34375-0.58984l3.047e-4 -4.5662c1.63e-5 -0.24369 0.13169-0.46978 0.34375-0.58984 0.10603-0.06003 0.2241-0.08938 0.3418-0.087891z" gpa:fill="foreground" gpa:states="filled"/>
 <path id="filmstrip" class="foreground-stroke transparent-fill" d="m15 12h-14m0-8h14m0 10v-12m-14 0v12" fill="none" stroke="#000" stroke-linecap="square" stroke-linejoin="round" stroke-width="2" gpa:states="outline state1" gpa:stroke="foreground" gpa:stroke-maxwidth="150%" gpa:stroke-minwidth="25%"/>
 <metadata>
  <rdf:RDF>
   <cc:Work>
    <cc:license rdf:resource="https://creativecommons.org/publicdomain/zero/1.0/"/>
    <dc:subject>
     <rdf:Bag>
      <rdf:li>video film strip media play video-x-generic</rdf:li>
     </rdf:Bag>
    </dc:subject>
    <dc:creator>
     <cc:Agent>
      <dc:title>Jakub Steiner</dc:title>
     </cc:Agent>
    </dc:creator>
   </cc:Work>
  </rdf:RDF>
 </metadata>
</svg>
